<svg xmlns="http://www.w3.org/2000/svg" xmlns:xlink="http://www.w3.org/1999/xlink" aria-hidden="true" role="img" class="iconify iconify--logos" width="35.93" height="32" preserveAspectRatio="xMidYMid meet" viewBox="0 0 256 228">
  <path d="M210.483 73.824a171.49 171.49 0 0 0-8.24-2.597c.465-1.9.893-3.777 1.273-5.621c6.238-30.281 2.16-54.676-11.769-62.708c-13.355-7.7-35.196.329-57.254 19.526a171.23 171.23 0 0 0-6.375 5.848a155.866 155.866 0 0 0-4.241-3.917C100.759 3.829 77.587-4.822 63.673 3.233C50.33 10.957 46.379 33.89 51.986 62.588a170.974 170.974 0 0 0 1.892 8.48c-3.28.932-6.445 1.924-9.474 2.98C17.309 83.498 0 98.307 0 113.668c0 15.865 18.582 31.778 46.812 41.427a145.52 145.52 0 0 0 6.921 2.165a167.467 167.467 0 0 0-2.01 9.138c-5.354 28.2-1.173 50.591 12.134 58.266c13.744 7.926 36.812-.22 59.273-19.855a145.567 145.567 0 0 0 5.342-4.923a168.064 168.064 0 0 0 6.92 6.314c21.758 18.722 43.246 26.282 56.54 18.586c13.731-7.949 18.194-32.003 12.4-61.268a145.016 145.016 0 0 0-1.535-6.842c1.62-.48 3.21-.974 4.76-1.488c29.348-9.723 48.443-25.443 48.443-41.52c0-15.417-17.868-30.326-45.517-39.844Zm-6.365 70.984c-1.4.463-2.836.91-4.3 1.345c-3.24-10.257-7.612-21.163-12.963-32.432c5.106-11 9.31-21.767 12.459-31.957a145.95 145.95 0 0 1 7.055 2.218c24.503 8.449 39.604 20.57 39.604 29.686c0 9.856-16.175 22.743-41.855 31.14ZM189.86 52.758c2.053 9.98 2.602 19.475 2.086 27.863c-8.27-1.817-17.1-3.1-26.356-3.834c-5.38-7.428-11.002-14.28-16.743-20.389a134.295 134.295 0 0 1 5.479-4.983c18.436-15.992 35.21-22.023 44.055-16.96c4.038 2.345 6.04 8.503 5.205 17.543a97.073 97.073 0 0 1-1.726 8.76Zm-61.113 53.548c-5.018 8.772-10.24 16.918-15.59 24.315c-10.164.702-20.572.702-30.738 0c-5.434-7.376-10.7-15.499-15.678-24.228c-4.976-8.724-9.466-17.486-13.364-26.088c3.907-8.66 8.41-17.482 13.412-26.242c5.004-8.76 10.222-16.86 15.564-24.2c10.18-.72 20.592-.72 30.768 0c5.39 7.373 10.656 15.46 15.594 24.14c4.946 8.69 9.404 17.432 13.304 26.006c-3.878 8.602-8.337 17.4-13.272 26.297Zm25.127-11.498c3.285 8.18 5.987 16.205 8.019 23.874c-8.133 1.87-16.853 3.213-25.95 3.991c3.17-4.814 6.268-9.834 9.267-15.045c3-5.212 5.858-10.463 8.664-15.82Zm-56.852 39.228c-3.748-4.362-7.49-9.057-11.163-14.056c3.648.168 7.352.256 11.096.256c3.818 0 7.591-.1 11.298-.28c-3.754 5.088-7.555 9.79-11.231 14.08Zm-42.59-13.796c-8.798-1.976-16.968-4.395-24.28-7.129C17.24 142.952 2 130.563 2 120.72c0-10.607 16.735-23.44 42.285-31.835c1.903-.63 3.842-1.222 5.8-1.777c3.226 10.258 7.525 21.038 12.77 31.993c-5.149 10.714-9.377 21.319-12.535 31.405Zm-8.77-69.816c-7.49 1.658-14.314 3.727-20.302 6.112C9.47 41.155 0 28.987 0 19.787c0-9.614 10.587-17.393 29.437-22.695c2.863-.932 6.093-1.608 9.459-2.192c2.898 10.262 6.976 21.222 12.199 32.545c-5.176 10.945-9.24 21.677-12.221 31.979Zm29.227-35.5c-5.498 9.656-10.298 19.348-14.292 28.821c-3.593-8.288 2.42-19.018 9.442-29.052c7.019-10.036 14.504-19.294 22.288-27.655a129.736 129.736 0 0 1 11.093 13.543c-9.165 1.052-18.069 2.693-26.472 4.908Zm97.564 9.4c4.934 5.67 9.71 11.879 14.228 18.574c3.758 5.552 7.268 11.249 10.514 17.024c-3.206 5.836-6.66 11.604-10.368 17.247a146.88 146.88 0 0 1-7.775 10.62c9.035-.762 17.578-2.076 25.447-3.93a117.098 117.098 0 0 0-7.258-21.575c-4.25-9.656-9.222-19.169-14.827-28.284c-3.252-5.3-6.685-10.418-10.296-15.35a98.11 98.11 0 0 1 .335 5.674ZM128 90.808c12.946 0 23.448 10.502 23.448 23.448c0 12.946-10.502 23.448-23.448 23.448c-12.946 0-23.448-10.502-23.448-23.448c0-12.946 10.502-23.448 23.448-23.448Z" fill="#61DAFB"/>
</svg>
